# xmcd
#
# Track frame offsets: 
#        150
#        22907
#        40224
#        58155
#
# Disc length: 1079 seconds
#
# Revision: 0
# Processed by: cddbd v1.5.2PL0 Copyright (c) Steve Scherf et al.
# Submitted via: ExactAudioCopy v0.95a5
#
DISCID=2b043504
DTITLE=YUNA ITO - miss you
DYEAR=2008
DGENRE=JPop
TTITLE0=miss you
TTITLE1=BREEEEEZIN!!!!!!!
TTITLE2=Uraban Mermaid - Bittersweet Movement Blood - I Riddimix - 
TTITLE3=miss you - Instrumental - 
EXTD=
EXTT0=
EXTT1=
EXTT2=
EXTT3=
PLAYORDER=
